<?xml version="1.0" encoding="utf-8"?>
<!-- Generator: Adobe Illustrator 18.1.1, SVG Export Plug-In . SVG Version: 6.00 Build 0)  -->
<svg version="1.1" id="Layer_1" xmlns="http://www.w3.org/2000/svg" xmlns:xlink="http://www.w3.org/1999/xlink" x="0px" y="0px"
	 viewBox="-217 350 176 93" enable-background="new -217 350 176 93" xml:space="preserve">
<path fill="#010101" d="M-41.8,350H-217v92.1h175.2V350z M-46.4,437.5h-166v-82.8h166V437.5z"/>
<path fill="#010101" d="M-128.9,420.3l-0.1,7.2c6.7-0.4,31.3-0.4,38.7,0l-0.2-7.1c-10.8,0.3-9.8-2-9.8-5.3v-14.2l13.4,15.5
	c2.6,3,4.7,6.7,7.3,10.9c24.7,0,27.7,0.2,27.7,0.2v-6.9c-7.9-0.7-9.2-1.5-12-4.7L-81,395.8c10.6-1.3,17.3-6.8,17.2-15.8
	c-0.1-15.7-14.4-15.1-29.6-15.3c-5.1-0.1-29.1,0.1-35.6,0.1l0.1,7.2c9.9,0,9.1,0.9,9.1,4.8v38.4C-119.8,417.6-118.5,421-128.9,420.3
	z M-100.3,372.5c1.5-0.1,2.8-0.3,4.2-0.3c7.3,0,11.9,2.8,11.9,8.8h-0.1c0.1,8.2-6.8,10.6-16,10.9V372.5z"/>
<path id="path5" d="M-182.8,426.4c-0.3,0.4-0.7,0.7-1.5,0.7H-202c-0.7,0-1.6-0.2-1.2-1.7l0.5-1.7c0.4-1.2,1.1-1.2,1.7-1.4
	c2.2-0.4,4.6-2.1,4.6-5.9v-40.9c-1.6-1.9-5.1-4.5-8.2-5.8c-1.7-0.6-1.9-1.4-1.5-2.3l0.7-2.1c0.3-0.4,0.7-0.7,1.5-0.7h22.4
	c2.2,0.2,3.4,1.8,5,3.7l27.2,36.1h0.2v-29c0-4.4-1.3-5-5.7-6.1c-1.2-0.2-1.3-1.1-1-1.9l0.7-2.1c0.3-0.4,0.7-0.7,1.5-0.7h17.6
	c0.7,0,1.6,0.2,1.2,1.7l-0.5,1.7c-0.4,1.2-1.1,1.2-1.7,1.4c-2.2,0.4-4.6,2.1-4.6,5.9v48.8c0,1.8-0.8,2.9-2.4,2.9h-10.4
	c-0.4,0-1-0.6-3.7-4l-30.6-41.3h-0.2v34.6c0,4.4,1.3,5,5.7,6.1c1.2,0.2,1.3,1.1,1,1.9L-182.8,426.4z"/>
</svg>
